<svg width="251" height="187" viewBox="0 0 251 187" fill="none" xmlns="http://www.w3.org/2000/svg">
<g id="logo">
<g id="simbols" filter="url(#filter0_d_3_18)">
<path id="open-arrow" d="M68.6835 32H94L69.3165 91.2593L94 150.519H68.6835L44 91.2593L68.6835 32Z" fill="#FFB904"/>
<path id="close-arrow" d="M184.316 32H159L183.684 91.2593L159 150.519H184.316L209 91.2593L184.316 32Z" fill="#FFB904"/>
<path id="slash" d="M140.5 0H159.5L113.5 179H94.5L140.5 0Z" fill="#FFB904"/>
</g>
<g id="text" filter="url(#filter1_d_3_18)">
<g id="/dw/" filter="url(#filter2_d_3_18)">
<path d="M14.9814 136.019H8.86084L43.0015 47.2422H49.0659L14.9814 136.019ZM58.1626 98.4531C59.0236 92.0892 60.7643 86.4552 63.3848 81.5513C66.0052 76.6099 69.2059 72.9412 72.9868 70.5454C76.8052 68.1496 81.0728 67.0078 85.7896 67.1201C89.3833 67.195 92.6589 68.0373 95.6162 69.647C98.5736 71.2192 100.913 73.6151 102.635 76.8345L108.812 42.75H115.438L100.445 129H94.2124L95.7285 120.914C90.4502 127.278 83.8991 130.348 76.0752 130.123C70.4225 129.973 65.9865 127.783 62.7671 123.553C59.5851 119.286 57.9193 113.558 57.7695 106.371C57.6947 104.05 57.7882 101.804 58.0503 99.6323L58.1626 98.4531ZM64.9009 99.5762C64.6014 102.084 64.4891 104.761 64.564 107.606C64.7137 112.735 65.8929 116.778 68.1016 119.735C70.3477 122.655 73.5296 124.19 77.6475 124.339C81.8027 124.452 85.4526 123.497 88.5972 121.476C91.7417 119.454 94.3996 116.759 96.5708 113.39L101.456 84.752C100.37 81.1208 98.5736 78.2757 96.0654 76.2168C93.5947 74.1204 90.4315 73.0161 86.5757 72.9038C80.8856 72.7166 76.1313 74.9066 72.313 79.4736C68.5321 84.0033 66.0988 90.311 65.0132 98.397L64.9009 99.5762ZM134.642 115.018V119.791L136.832 114.569L159.012 68.2432H164.74L170.748 114.681L171.085 120.409L173.387 114.625L193.49 68.2432H200.621L172.882 129H167.154L160.472 80.8213L160.416 77.4521L159.125 80.8774L135.877 129H130.15L123.692 68.2432L129.981 68.187L134.642 115.018ZM207.921 136.019H201.8L235.941 47.2422H242.005L207.921 136.019Z" fill="black" shape-rendering="crispEdges"/>
<path d="M14.9814 136.019V138.019H16.3559L16.8486 136.736L14.9814 136.019ZM8.86084 136.019L6.99412 135.301L5.94891 138.019H8.86084V136.019ZM43.0015 47.2422V45.2422H41.6278L41.1347 46.5243L43.0015 47.2422ZM49.0659 47.2422L50.933 47.959L51.9761 45.2422H49.0659V47.2422ZM14.9814 134.019H8.86084V138.019H14.9814V134.019ZM10.7276 136.737L44.8682 47.9601L41.1347 46.5243L6.99412 135.301L10.7276 136.737ZM43.0015 49.2422H49.0659V45.2422H43.0015V49.2422ZM47.1988 46.5253L13.1143 135.302L16.8486 136.736L50.933 47.959L47.1988 46.5253ZM58.1626 98.4531L56.1807 98.185L56.1754 98.2242L56.1716 98.2635L58.1626 98.4531ZM63.3848 81.5513L65.1487 82.4938L65.1517 82.4883L63.3848 81.5513ZM72.9868 70.5454L71.9238 68.8513L71.9163 68.856L72.9868 70.5454ZM85.7896 67.1201L85.7419 69.1196L85.7479 69.1197L85.7896 67.1201ZM95.6162 69.647L94.6601 71.4036L94.6687 71.4083L94.6774 71.4129L95.6162 69.647ZM102.635 76.8345L100.872 77.7778L103.579 82.8402L104.603 77.1911L102.635 76.8345ZM108.812 42.75V40.75H107.142L106.844 42.3934L108.812 42.75ZM115.438 42.75L117.408 43.0925L117.816 40.75H115.438V42.75ZM100.445 129V131H102.128L102.416 129.343L100.445 129ZM94.2124 129L92.2467 128.631L91.8025 131H94.2124V129ZM95.7285 120.914L97.6943 121.283L99.1167 113.696L94.1891 119.637L95.7285 120.914ZM76.0752 130.123L76.1326 128.124L76.1282 128.124L76.0752 130.123ZM62.7671 123.553L61.1637 124.749L61.1696 124.757L61.1756 124.764L62.7671 123.553ZM57.7695 106.371L59.7691 106.329L59.7689 106.318L59.7685 106.306L57.7695 106.371ZM58.0503 99.6323L60.0359 99.872L60.0389 99.847L60.0413 99.8219L58.0503 99.6323ZM64.9009 99.5762L66.8868 99.8133L66.8896 99.7896L66.8919 99.7658L64.9009 99.5762ZM64.564 107.606L62.5646 107.659L62.5648 107.664L64.564 107.606ZM68.1016 119.735L66.4991 120.932L66.5076 120.943L66.5163 120.954L68.1016 119.735ZM77.6475 124.339L77.5748 126.338L77.5841 126.338L77.5934 126.339L77.6475 124.339ZM96.5708 113.39L98.2519 114.473L98.4735 114.129L98.5423 113.726L96.5708 113.39ZM101.456 84.752L103.428 85.0883L103.506 84.6272L103.372 84.1791L101.456 84.752ZM96.0654 76.2168L94.7715 77.7418L94.7839 77.7523L94.7964 77.7627L96.0654 76.2168ZM86.5757 72.9038L86.5099 74.9027L86.5175 74.903L86.5757 72.9038ZM72.313 79.4736L70.7786 78.1908L70.7776 78.192L72.313 79.4736ZM65.0132 98.397L63.031 98.1308L63.0258 98.169L63.0222 98.2074L65.0132 98.397ZM60.1445 98.7213C60.9785 92.5573 62.6565 87.1579 65.1487 82.4938L61.6208 80.6087C58.8722 85.7525 57.0687 91.6211 56.1807 98.185L60.1445 98.7213ZM65.1517 82.4883C67.6494 77.7783 70.6347 74.4036 74.0573 72.2348L71.9163 68.856C67.7771 71.4789 64.361 75.4415 61.6178 80.6143L65.1517 82.4883ZM74.0498 72.2395C77.5199 70.0622 81.398 69.0161 85.7419 69.1196L85.8372 65.1207C80.7475 64.9995 76.0904 66.2369 71.9238 68.8513L74.0498 72.2395ZM85.7479 69.1197C89.044 69.1884 92.0026 69.9571 94.6601 71.4036L96.5724 67.8903C93.3151 66.1174 89.7226 65.2016 85.8312 65.1206L85.7479 69.1197ZM94.6774 71.4129C97.2527 72.7821 99.3193 74.8754 100.872 77.7778L104.399 75.8912C102.507 72.3547 99.8945 69.6564 96.5551 67.881L94.6774 71.4129ZM104.603 77.1911L110.78 43.1066L106.844 42.3934L100.667 76.4778L104.603 77.1911ZM108.812 44.75H115.438V40.75H108.812V44.75ZM113.468 42.4075L98.4749 128.657L102.416 129.343L117.408 43.0925L113.468 42.4075ZM100.445 127H94.2124V131H100.445V127ZM96.1781 129.369L97.6943 121.283L93.7628 120.545L92.2467 128.631L96.1781 129.369ZM94.1891 119.637C89.278 125.558 83.3024 128.33 76.1326 128.124L76.0178 132.122C84.4958 132.366 91.6224 128.997 97.2679 122.191L94.1891 119.637ZM76.1282 128.124C71.0368 127.989 67.1849 126.056 64.3586 122.342L61.1756 124.764C64.7881 129.511 69.8082 131.958 76.0222 132.122L76.1282 128.124ZM64.3705 122.358C61.5114 118.523 59.9131 113.243 59.7691 106.329L55.77 106.412C55.9254 113.873 57.6589 120.048 61.1637 124.749L64.3705 122.358ZM59.7685 106.306C59.6967 104.081 59.7867 101.936 60.0359 99.872L56.0647 99.3927C55.7898 101.671 55.6926 104.019 55.7706 106.435L59.7685 106.306ZM60.0413 99.8219L60.1536 98.6427L56.1716 98.2635L56.0593 99.4427L60.0413 99.8219ZM62.915 99.3391C62.6027 101.954 62.4876 104.729 62.5647 107.659L66.5633 107.553C66.4906 104.793 66.6001 102.214 66.8868 99.8133L62.915 99.3391ZM62.5648 107.664C62.722 113.048 63.9651 117.539 66.4991 120.932L69.704 118.538C67.8207 116.016 66.7054 112.421 66.5631 107.548L62.5648 107.664ZM66.5163 120.954C69.1714 124.406 72.9415 126.17 77.5748 126.338L77.7201 122.341C74.1178 122.21 71.5239 120.904 69.6868 118.515L66.5163 120.954ZM77.5934 126.339C82.1036 126.461 86.1587 125.421 89.6787 123.158L87.5157 119.793C84.7466 121.573 81.5018 122.443 77.7015 122.34L77.5934 126.339ZM89.6787 123.158C93.0806 120.971 95.9373 118.065 98.2519 114.473L94.8897 112.306C92.8619 115.453 90.4028 117.937 87.5157 119.793L89.6787 123.158ZM98.5423 113.726L103.428 85.0883L99.4845 84.4156L94.5993 113.053L98.5423 113.726ZM103.372 84.1791C102.192 80.232 100.199 77.0228 97.3344 74.6709L94.7964 77.7627C96.9478 79.5287 98.5487 82.0095 99.5399 85.3248L103.372 84.1791ZM97.3594 74.6918C94.4797 72.2484 90.8537 71.0276 86.6339 70.9047L86.5175 74.903C90.0093 75.0047 92.7097 75.9925 94.7715 77.7418L97.3594 74.6918ZM86.6414 70.9049C80.3043 70.6964 74.9708 73.1766 70.7786 78.1908L73.8474 80.7565C77.2919 76.6366 81.4669 74.7368 86.5099 74.9027L86.6414 70.9049ZM70.7776 78.192C66.6792 83.102 64.1483 89.8087 63.031 98.1308L66.9954 98.6631C68.0493 90.8134 70.385 84.9045 73.8484 80.7552L70.7776 78.192ZM63.0222 98.2074L62.9099 99.3866L66.8919 99.7658L67.0042 98.5866L63.0222 98.2074ZM134.642 115.018H136.642V114.919L136.632 114.82L134.642 115.018ZM134.642 119.791H132.642L136.486 120.564L134.642 119.791ZM136.832 114.569L135.028 113.705L135.007 113.75L134.988 113.795L136.832 114.569ZM159.012 68.2432V66.2432H157.752L157.208 67.3795L159.012 68.2432ZM164.74 68.2432L166.723 67.9865L166.498 66.2432H164.74V68.2432ZM170.748 114.681L172.745 114.564L172.74 114.494L172.732 114.425L170.748 114.681ZM171.085 120.409L169.088 120.526L172.943 121.148L171.085 120.409ZM173.387 114.625L171.552 113.83L171.54 113.857L171.529 113.885L173.387 114.625ZM193.49 68.2432V66.2432H192.177L191.655 67.4478L193.49 68.2432ZM200.621 68.2432L202.44 69.0738L203.733 66.2432H200.621V68.2432ZM172.882 129V131H174.167L174.701 129.831L172.882 129ZM167.154 129L165.173 129.275L165.413 131H167.154V129ZM160.472 80.8213L158.472 80.8546L158.474 80.9759L158.491 81.096L160.472 80.8213ZM160.416 77.4521L162.416 77.4188L158.545 76.7465L160.416 77.4521ZM159.125 80.8774L160.925 81.7474L160.964 81.6668L160.996 81.583L159.125 80.8774ZM135.877 129V131H137.132L137.678 129.87L135.877 129ZM130.15 129L128.161 129.211L128.351 131H130.15V129ZM123.692 68.2432L123.675 66.2432L121.471 66.2629L121.704 68.4545L123.692 68.2432ZM129.981 68.187L131.972 67.9889L131.791 66.1708L129.964 66.1871L129.981 68.187ZM132.642 115.018V119.791H136.642V115.018H132.642ZM136.486 120.564L138.676 115.342L134.988 113.795L132.798 119.018L136.486 120.564ZM138.636 115.433L160.816 69.1068L157.208 67.3795L135.028 113.705L138.636 115.433ZM159.012 70.2432H164.74V66.2432H159.012V70.2432ZM162.756 68.4998L168.765 114.938L172.732 114.425L166.723 67.9865L162.756 68.4998ZM168.751 114.799L169.088 120.526L173.082 120.291L172.745 114.564L168.751 114.799ZM172.943 121.148L175.245 115.365L171.529 113.885L169.227 119.669L172.943 121.148ZM175.222 115.42L195.325 69.0385L191.655 67.4478L171.552 113.83L175.222 115.42ZM193.49 70.2432H200.621V66.2432H193.49V70.2432ZM198.802 67.4125L171.062 128.169L174.701 129.831L202.44 69.0738L198.802 67.4125ZM172.882 127H167.154V131H172.882V127ZM169.135 128.725L162.453 80.5465L158.491 81.096L165.173 129.275L169.135 128.725ZM162.472 80.788L162.416 77.4188L158.416 77.4855L158.472 80.8546L162.472 80.788ZM158.545 76.7465L157.253 80.1718L160.996 81.583L162.287 78.1578L158.545 76.7465ZM157.324 80.0075L134.077 128.13L137.678 129.87L160.925 81.7474L157.324 80.0075ZM135.877 127H130.15V131H135.877V127ZM132.139 128.789L125.681 68.0318L121.704 68.4545L128.161 129.211L132.139 128.789ZM123.71 70.2431L129.999 70.1869L129.964 66.1871L123.675 66.2432L123.71 70.2431ZM127.991 68.3851L132.652 115.216L136.632 114.82L131.972 67.9889L127.991 68.3851ZM207.921 136.019V138.019H209.295L209.788 136.736L207.921 136.019ZM201.8 136.019L199.934 135.301L198.888 138.019H201.8V136.019ZM235.941 47.2422V45.2422H234.567L234.074 46.5243L235.941 47.2422ZM242.005 47.2422L243.872 47.959L244.916 45.2422H242.005V47.2422ZM207.921 134.019H201.8V138.019H207.921V134.019ZM203.667 136.737L237.808 47.9601L234.074 46.5243L199.934 135.301L203.667 136.737ZM235.941 49.2422H242.005V45.2422H235.941V49.2422ZM240.138 46.5253L206.054 135.302L209.788 136.736L243.872 47.959L240.138 46.5253Z" fill="white" fill-opacity="0.25"/>
</g>
</g>
</g>
<defs>
<filter id="filter0_d_3_18" x="40" y="0" width="173" height="187" filterUnits="userSpaceOnUse" color-interpolation-filters="sRGB">
<feFlood flood-opacity="0" result="BackgroundImageFix"/>
<feColorMatrix in="SourceAlpha" type="matrix" values="0 0 0 0 0 0 0 0 0 0 0 0 0 0 0 0 0 0 127 0" result="hardAlpha"/>
<feOffset dy="4"/>
<feGaussianBlur stdDeviation="2"/>
<feComposite in2="hardAlpha" operator="out"/>
<feColorMatrix type="matrix" values="0 0 0 0 0 0 0 0 0 0 0 0 0 0 0 0 0 0 0.25 0"/>
<feBlend mode="normal" in2="BackgroundImageFix" result="effect1_dropShadow_3_18"/>
<feBlend mode="normal" in="SourceGraphic" in2="effect1_dropShadow_3_18" result="shape"/>
</filter>
<filter id="filter1_d_3_18" x="4.86084" y="42.75" width="241.145" height="101.269" filterUnits="userSpaceOnUse" color-interpolation-filters="sRGB">
<feFlood flood-opacity="0" result="BackgroundImageFix"/>
<feColorMatrix in="SourceAlpha" type="matrix" values="0 0 0 0 0 0 0 0 0 0 0 0 0 0 0 0 0 0 127 0" result="hardAlpha"/>
<feOffset dy="4"/>
<feGaussianBlur stdDeviation="2"/>
<feColorMatrix type="matrix" values="0 0 0 0 0.683333 0 0 0 0 0.683333 0 0 0 0 0.683333 0 0 0 0.5 0"/>
<feBlend mode="normal" in2="BackgroundImageFix" result="effect1_dropShadow_3_18"/>
<feBlend mode="normal" in="SourceGraphic" in2="effect1_dropShadow_3_18" result="shape"/>
</filter>
<filter id="filter2_d_3_18" x="4.86084" y="42.75" width="241.145" height="101.269" filterUnits="userSpaceOnUse" color-interpolation-filters="sRGB">
<feFlood flood-opacity="0" result="BackgroundImageFix"/>
<feColorMatrix in="SourceAlpha" type="matrix" values="0 0 0 0 0 0 0 0 0 0 0 0 0 0 0 0 0 0 127 0" result="hardAlpha"/>
<feOffset dy="4"/>
<feGaussianBlur stdDeviation="2"/>
<feComposite in2="hardAlpha" operator="out"/>
<feColorMatrix type="matrix" values="0 0 0 0 0 0 0 0 0 0 0 0 0 0 0 0 0 0 0.25 0"/>
<feBlend mode="normal" in2="BackgroundImageFix" result="effect1_dropShadow_3_18"/>
<feBlend mode="normal" in="SourceGraphic" in2="effect1_dropShadow_3_18" result="shape"/>
</filter>
</defs>
</svg>
