<svg width="251" height="187" viewBox="0 0 251 187" fill="none" xmlns="http://www.w3.org/2000/svg">
<g id="logo">
<g id="simbols" filter="url(#filter0_d_3_18)">
<path id="open-arrow" d="M68.6835 32H94L69.3165 91.2593L94 150.519H68.6835L44 91.2593L68.6835 32Z" fill="#FFB904"/>
<path id="close-arrow" d="M184.316 32H159L183.684 91.2593L159 150.519H184.316L209 91.2593L184.316 32Z" fill="#FFB904"/>
<path id="slash" d="M140.5 0H159.5L113.5 179H94.5L140.5 0Z" fill="#FFB904"/>
</g>
<g id="text" filter="url(#filter1_d_3_18)">
<g id="/dw/" filter="url(#filter2_d_3_18)">
<path d="M49.1274 47.2422L14.9868 136.019H8.92236L43.063 47.2422H49.1274ZM95.9585 116.927L108.817 42.75H115.387L100.451 129H94.3301L95.9585 116.927ZM58.1118 99.4639L58.2803 98.2847C58.8418 94.616 59.7964 90.9474 61.144 87.2788C62.4917 83.5728 64.2886 80.1849 66.5347 77.1152C68.7808 74.0456 71.4948 71.5936 74.6768 69.7593C77.8962 67.925 81.6209 67.0452 85.8511 67.1201C89.1828 67.1576 92.1027 67.8688 94.6108 69.2539C97.119 70.6016 99.1966 72.4359 100.844 74.7568C102.528 77.0778 103.745 79.6982 104.494 82.6182C105.28 85.5007 105.579 88.4954 105.392 91.6025L102.978 106.595C102.304 109.815 101.162 112.847 99.5522 115.692C97.9425 118.537 95.9585 121.064 93.6001 123.272C91.2791 125.444 88.6213 127.147 85.6265 128.382C82.6691 129.618 79.4871 130.198 76.0806 130.123C72.0002 130.086 68.6685 129.094 66.0854 127.147C63.5399 125.2 61.612 122.692 60.3018 119.623C58.9915 116.553 58.1867 113.24 57.8872 109.684C57.6252 106.127 57.7 102.721 58.1118 99.4639ZM65.0186 98.2285L64.8501 99.4077C64.4757 101.953 64.3073 104.649 64.3447 107.494C64.3822 110.339 64.7939 113.034 65.5801 115.58C66.4036 118.088 67.77 120.147 69.6792 121.756C71.5884 123.366 74.1901 124.208 77.4844 124.283C80.7412 124.321 83.8483 123.647 86.8057 122.262C89.763 120.839 92.346 118.893 94.5547 116.422C96.8008 113.951 98.373 111.162 99.2715 108.055L102.304 90.5356C102.453 88.1772 102.173 85.9499 101.461 83.8535C100.788 81.7572 99.7581 79.9041 98.373 78.2944C96.988 76.6847 95.3034 75.4119 93.3193 74.4761C91.3727 73.5028 89.2015 73.0161 86.8057 73.0161C83.3991 72.9412 80.423 73.6712 77.8774 75.2061C75.3693 76.7035 73.2355 78.7062 71.4761 81.2144C69.7166 83.6851 68.3128 86.4178 67.2646 89.4126C66.2165 92.37 65.4678 95.3086 65.0186 98.2285ZM136.332 114.569L158.512 68.2993H163.397L158.344 81.1582L135.321 129H130.492L136.332 114.569ZM129.65 68.2432L134.086 115.523L134.311 129H129.706L123.08 68.187L129.65 68.2432ZM172.887 114.625L192.99 68.2993H199.953L172.326 129H167.384L172.887 114.625ZM164.127 68.187L170.192 114.85L171.203 129H166.767L159.86 80.2598L159.411 68.187H164.127ZM241.056 47.2422L206.916 136.019H200.851L234.992 47.2422H241.056Z" fill="#DFDFDF" shape-rendering="crispEdges"/>
<path d="M49.1274 47.2422L50.9942 47.9601L52.0394 45.2422H49.1274V47.2422ZM14.9868 136.019V138.019H16.3605L16.8535 136.737L14.9868 136.019ZM8.92236 136.019L7.05564 135.301L6.01044 138.019H8.92236V136.019ZM43.063 47.2422V45.2422H41.6893L41.1963 46.5243L43.063 47.2422ZM47.2607 46.5243L13.1201 135.301L16.8535 136.737L50.9942 47.9601L47.2607 46.5243ZM14.9868 134.019H8.92236V138.019H14.9868V134.019ZM10.7891 136.737L44.9297 47.9601L41.1963 46.5243L7.05564 135.301L10.7891 136.737ZM43.063 49.2422H49.1274V45.2422H43.063V49.2422ZM95.9585 116.927L93.9879 116.586L93.9815 116.623L93.9764 116.66L95.9585 116.927ZM108.817 42.75V40.75H107.134L106.847 42.4084L108.817 42.75ZM115.387 42.75L117.358 43.0913L117.763 40.75H115.387V42.75ZM100.451 129V131H102.134L102.421 129.341L100.451 129ZM94.3301 129L92.348 128.733L92.0422 131H94.3301V129ZM58.1118 99.4639L56.1319 99.181L56.1296 99.197L56.1276 99.213L58.1118 99.4639ZM58.2803 98.2847L56.3033 97.9821L56.3018 97.9919L56.3004 98.0018L58.2803 98.2847ZM61.144 87.2788L63.0214 87.9684L63.0236 87.9623L61.144 87.2788ZM74.6768 69.7593L73.6866 68.0215L73.6779 68.0266L74.6768 69.7593ZM85.8511 67.1201L85.8157 69.1198L85.8286 69.12L85.8511 67.1201ZM94.6108 69.2539L93.644 71.0047L93.6541 71.0102L93.6642 71.0157L94.6108 69.2539ZM100.844 74.7568L99.2127 75.9143L99.2189 75.923L99.2251 75.9316L100.844 74.7568ZM104.494 82.6182L102.556 83.1149L102.56 83.1297L102.564 83.1444L104.494 82.6182ZM105.392 91.6025L107.367 91.9205L107.382 91.8222L107.388 91.7228L105.392 91.6025ZM102.978 106.595L104.935 107.005L104.945 106.959L104.952 106.913L102.978 106.595ZM93.6001 123.272L94.9664 124.733L94.9672 124.732L93.6001 123.272ZM85.6265 128.382L84.8638 126.533L84.8556 126.537L85.6265 128.382ZM76.0806 130.123L76.1245 128.124L76.1117 128.123L76.0989 128.123L76.0806 130.123ZM66.0854 127.147L64.8705 128.736L64.8817 128.744L66.0854 127.147ZM60.3018 119.623L58.4623 120.408L60.3018 119.623ZM57.8872 109.684L55.8926 109.831L55.8934 109.841L55.8943 109.851L57.8872 109.684ZM65.0186 98.2285L63.0418 97.9244L63.0402 97.935L63.0387 97.9457L65.0186 98.2285ZM64.8501 99.4077L66.8288 99.6987L66.83 99.6906L64.8501 99.4077ZM65.5801 115.58L63.6691 116.17L63.6744 116.187L63.6799 116.204L65.5801 115.58ZM77.4844 124.283L77.4389 126.283L77.4502 126.283L77.4614 126.283L77.4844 124.283ZM86.8057 122.262L87.6539 124.073L87.6633 124.069L87.6726 124.064L86.8057 122.262ZM94.5547 116.422L93.0748 115.077L93.0692 115.083L93.0636 115.089L94.5547 116.422ZM99.2715 108.055L101.193 108.611L101.223 108.505L101.242 108.396L99.2715 108.055ZM102.304 90.5356L104.274 90.8767L104.293 90.7702L104.3 90.6624L102.304 90.5356ZM101.461 83.8535L99.5574 84.4655L99.5623 84.4809L99.5675 84.4961L101.461 83.8535ZM93.3193 74.4761L92.4249 76.2649L92.4454 76.2752L92.4661 76.2849L93.3193 74.4761ZM86.8057 73.0161L86.7617 75.0156L86.7837 75.0161H86.8057V73.0161ZM77.8774 75.2061L78.9027 76.9233L78.9101 76.9188L77.8774 75.2061ZM71.4761 81.2144L73.1052 82.3745L73.1093 82.3687L73.1134 82.3629L71.4761 81.2144ZM67.2646 89.4126L69.1498 90.0807L69.1524 90.0733L67.2646 89.4126ZM97.9291 117.269L110.788 43.0916L106.847 42.4084L93.9879 116.586L97.9291 117.269ZM108.817 44.75H115.387V40.75H108.817V44.75ZM113.417 42.4087L98.48 128.659L102.421 129.341L117.358 43.0913L113.417 42.4087ZM100.451 127H94.3301V131H100.451V127ZM96.3121 129.267L97.9405 117.195L93.9764 116.66L92.348 128.733L96.3121 129.267ZM60.0917 99.7467L60.2602 98.5675L56.3004 98.0018L56.1319 99.181L60.0917 99.7467ZM60.2572 98.5873C60.7975 95.0574 61.7173 91.5183 63.0214 87.9684L59.2667 86.5892C57.8754 90.3765 56.8861 94.1746 56.3033 97.9821L60.2572 98.5873ZM63.0236 87.9623C64.3091 84.4272 66.0183 81.2079 68.1487 78.2963L64.9206 75.9342C62.5589 79.1619 60.6743 82.7183 59.2645 86.5953L63.0236 87.9623ZM68.1487 78.2963C70.2364 75.4431 72.7435 73.1822 75.6756 71.492L73.6779 68.0266C70.2461 70.0049 67.3251 72.648 64.9206 75.9342L68.1487 78.2963ZM75.6669 71.497C78.532 69.8646 81.8928 69.0504 85.8157 69.1198L85.8865 65.1204C81.3491 65.0401 77.2604 65.9854 73.6867 68.0215L75.6669 71.497ZM85.8286 69.12C88.8839 69.1543 91.4691 69.8036 93.644 71.0047L95.5777 67.5031C92.7363 65.934 89.4817 65.1608 85.8735 65.1202L85.8286 69.12ZM93.6642 71.0157C95.9008 72.2174 97.7442 73.845 99.2127 75.9143L102.475 73.5993C100.649 71.0268 98.3372 68.9857 95.5575 67.4921L93.6642 71.0157ZM99.2251 75.9316C100.754 78.0384 101.867 80.4264 102.556 83.1149L106.431 82.1214C105.623 78.9701 104.302 76.1172 102.462 73.582L99.2251 75.9316ZM102.564 83.1444C103.29 85.8078 103.57 88.5837 103.396 91.4823L107.388 91.7228C107.588 88.4072 107.269 85.1935 106.423 82.0919L102.564 83.1444ZM103.418 91.2845L101.003 106.277L104.952 106.913L107.367 91.9205L103.418 91.2845ZM101.02 106.185C100.388 109.204 99.3191 112.042 97.8115 114.707L101.293 116.677C103.005 113.651 104.219 110.425 104.935 107.005L101.02 106.185ZM97.8115 114.707C96.3004 117.378 94.4418 119.744 92.233 121.813L94.9672 124.732C97.4752 122.383 99.5847 119.696 101.293 116.677L97.8115 114.707ZM92.2338 121.812C90.0924 123.815 87.64 125.388 84.8638 126.533L86.3891 130.231C89.6025 128.906 92.4659 127.072 94.9664 124.733L92.2338 121.812ZM84.8556 126.537C82.1721 127.658 79.2696 128.193 76.1245 128.124L76.0366 132.123C79.7046 132.203 83.1661 131.578 86.3974 130.228L84.8556 126.537ZM76.0989 128.123C72.3334 128.089 69.4498 127.178 67.2891 125.55L64.8817 128.744C67.8871 131.009 71.6669 132.083 76.0622 132.123L76.0989 128.123ZM67.3003 125.558C65.0404 123.83 63.3219 121.604 62.1412 118.837L58.4623 120.408C59.9021 123.781 62.0394 126.571 64.8705 128.736L67.3003 125.558ZM62.1412 118.837C60.9204 115.977 60.163 112.874 59.8802 109.516L55.8943 109.851C56.2104 113.606 57.0627 117.129 58.4623 120.408L62.1412 118.837ZM59.8818 109.537C59.6287 106.102 59.7023 102.829 60.096 99.7147L56.1276 99.213C55.6978 102.613 55.6216 106.153 55.8926 109.831L59.8818 109.537ZM63.0387 97.9457L62.8702 99.1249L66.83 99.6906L66.9985 98.5114L63.0387 97.9457ZM62.8714 99.1167C62.4801 101.778 62.3062 104.58 62.3449 107.52L66.3446 107.467C66.3084 104.717 66.4714 102.129 66.8288 99.6987L62.8714 99.1167ZM62.3449 107.52C62.3847 110.543 62.8229 113.429 63.6691 116.17L67.491 114.989C66.765 112.639 66.3796 110.134 66.3446 107.467L62.3449 107.52ZM63.6799 116.204C64.6123 119.043 66.1807 121.423 68.39 123.285L70.9684 120.227C69.3594 118.871 68.195 117.132 67.4803 114.956L63.6799 116.204ZM68.39 123.285C70.7456 125.271 73.8351 126.201 77.4389 126.283L77.5298 122.284C74.5451 122.216 72.4312 121.461 70.9684 120.227L68.39 123.285ZM77.4614 126.283C81.02 126.324 84.4248 125.585 87.6539 124.073L85.9574 120.451C83.2718 121.708 80.4625 122.317 77.5074 122.283L77.4614 126.283ZM87.6726 124.064C90.8692 122.526 93.6637 120.419 96.0458 117.755L93.0636 115.089C91.0284 117.366 88.6568 119.152 85.9387 120.459L87.6726 124.064ZM96.0346 117.767C98.4793 115.078 100.207 112.021 101.193 108.611L97.3502 107.5C96.5394 110.304 95.1222 112.824 93.0748 115.077L96.0346 117.767ZM101.242 108.396L104.274 90.8767L100.333 90.1946L97.3008 107.714L101.242 108.396ZM104.3 90.6624C104.465 88.0611 104.156 85.5709 103.355 83.2109L99.5675 84.4961C100.189 86.3288 100.442 88.2934 100.308 90.4089L104.3 90.6624ZM103.365 83.2415C102.613 80.9003 101.455 78.8097 99.8891 76.9899L96.857 79.5989C98.0614 80.9985 98.9622 82.614 99.5574 84.4655L103.365 83.2415ZM99.8891 76.9899C98.3148 75.1604 96.4019 73.7188 94.1726 72.6672L92.4661 76.2849C94.2049 77.1051 95.6611 78.2091 96.857 79.5989L99.8891 76.9899ZM94.2138 72.6872C91.9623 71.5615 89.4802 71.0161 86.8057 71.0161V75.0161C88.9228 75.0161 90.7831 75.444 92.4249 76.2649L94.2138 72.6872ZM86.8496 71.0166C83.121 70.9346 79.7602 71.7355 76.8447 73.4933L78.9101 76.9188C81.0858 75.607 83.6772 74.9478 86.7617 75.0156L86.8496 71.0166ZM76.8522 73.4888C74.0905 75.1376 71.7519 77.3386 69.8388 80.0658L73.1134 82.3629C74.7192 80.0738 76.6481 78.2693 78.9027 76.9233L76.8522 73.4888ZM69.8469 80.0542C67.9733 82.6853 66.4845 85.5875 65.3769 88.7519L69.1524 90.0733C70.1412 87.2481 71.46 84.6848 73.1052 82.3745L69.8469 80.0542ZM65.3796 88.7445C64.2921 91.8127 63.5112 94.8731 63.0418 97.9244L66.9953 98.5326C67.4243 95.7441 68.1409 92.9272 69.1497 90.0807L65.3796 88.7445ZM136.332 114.569L134.529 113.704L134.502 113.761L134.478 113.819L136.332 114.569ZM158.512 68.2993V66.2993H157.253L156.709 67.4348L158.512 68.2993ZM163.397 68.2993L165.259 69.0309L166.332 66.2993H163.397V68.2993ZM158.344 81.1582L160.146 82.0255L160.178 81.9587L160.205 81.8898L158.344 81.1582ZM135.321 129V131H136.578L137.123 129.867L135.321 129ZM130.492 129L128.638 128.25L127.525 131H130.492V129ZM129.65 68.2432L131.641 68.0563L131.472 66.2587L129.667 66.2432L129.65 68.2432ZM134.086 115.523L136.086 115.49L136.084 115.413L136.077 115.337L134.086 115.523ZM134.311 129V131H136.344L136.31 128.967L134.311 129ZM129.706 129L127.718 129.217L127.912 131H129.706V129ZM123.08 68.187L123.097 66.1871L120.848 66.1679L121.092 68.4036L123.08 68.187ZM172.887 114.625L171.053 113.829L171.035 113.869L171.019 113.91L172.887 114.625ZM192.99 68.2993V66.2993H191.677L191.155 67.5032L192.99 68.2993ZM199.953 68.2993L201.773 69.1278L203.06 66.2993H199.953V68.2993ZM172.326 129V131H173.613L174.146 129.828L172.326 129ZM167.384 129L165.516 128.285L164.477 131H167.384V129ZM164.127 68.187L166.111 67.9293L165.884 66.187H164.127V68.187ZM170.192 114.85L172.187 114.707L172.183 114.649L172.175 114.592L170.192 114.85ZM171.203 129V131H173.351L173.198 128.858L171.203 129ZM166.767 129L164.786 129.281L165.03 131H166.767V129ZM159.86 80.2598L157.861 80.3341L157.865 80.4377L157.88 80.5404L159.86 80.2598ZM159.411 68.187V66.187H157.335L157.412 68.2614L159.411 68.187ZM138.136 115.433L160.316 69.1639L156.709 67.4348L134.529 113.704L138.136 115.433ZM158.512 70.2993H163.397V66.2993H158.512V70.2993ZM161.536 67.5678L156.482 80.4266L160.205 81.8898L165.259 69.0309L161.536 67.5678ZM156.542 80.291L133.519 128.133L137.123 129.867L160.146 82.0255L156.542 80.291ZM135.321 127H130.492V131H135.321V127ZM132.346 129.75L138.186 115.319L134.478 113.819L128.638 128.25L132.346 129.75ZM127.659 68.43L132.095 115.71L136.077 115.337L131.641 68.0563L127.659 68.43ZM132.086 115.557L132.311 129.033L136.31 128.967L136.086 115.49L132.086 115.557ZM134.311 127H129.706V131H134.311V127ZM131.694 128.783L125.068 67.9704L121.092 68.4036L127.718 129.217L131.694 128.783ZM123.063 70.1869L129.633 70.2431L129.667 66.2432L123.097 66.1871L123.063 70.1869ZM174.722 115.421L194.824 69.0955L191.155 67.5032L171.053 113.829L174.722 115.421ZM192.99 70.2993H199.953V66.2993H192.99V70.2993ZM198.132 67.4708L170.505 128.172L174.146 129.828L201.773 69.1278L198.132 67.4708ZM172.326 127H167.384V131H172.326V127ZM169.252 129.715L174.755 115.34L171.019 113.91L165.516 128.285L169.252 129.715ZM162.144 68.4448L168.209 115.107L172.175 114.592L166.111 67.9293L162.144 68.4448ZM168.197 114.992L169.208 129.142L173.198 128.858L172.187 114.707L168.197 114.992ZM171.203 127H166.767V131H171.203V127ZM168.747 128.719L161.84 79.9792L157.88 80.5404L164.786 129.281L168.747 128.719ZM161.858 80.1854L161.409 68.1126L157.412 68.2614L157.861 80.3341L161.858 80.1854ZM159.411 70.187H164.127V66.187H159.411V70.187ZM241.056 47.2422L242.923 47.9601L243.968 45.2422H241.056V47.2422ZM206.916 136.019V138.019H208.289L208.782 136.737L206.916 136.019ZM200.851 136.019L198.984 135.301L197.939 138.019H200.851V136.019ZM234.992 47.2422V45.2422H233.618L233.125 46.5243L234.992 47.2422ZM239.189 46.5243L205.049 135.301L208.782 136.737L242.923 47.9601L239.189 46.5243ZM206.916 134.019H200.851V138.019H206.916V134.019ZM202.718 136.737L236.858 47.9601L233.125 46.5243L198.984 135.301L202.718 136.737ZM234.992 49.2422H241.056V45.2422H234.992V49.2422Z" fill="white" fill-opacity="0.25"/>
</g>
</g>
</g>
<defs>
<filter id="filter0_d_3_18" x="40" y="0" width="173" height="187" filterUnits="userSpaceOnUse" color-interpolation-filters="sRGB">
<feFlood flood-opacity="0" result="BackgroundImageFix"/>
<feColorMatrix in="SourceAlpha" type="matrix" values="0 0 0 0 0 0 0 0 0 0 0 0 0 0 0 0 0 0 127 0" result="hardAlpha"/>
<feOffset dy="4"/>
<feGaussianBlur stdDeviation="2"/>
<feComposite in2="hardAlpha" operator="out"/>
<feColorMatrix type="matrix" values="0 0 0 0 0 0 0 0 0 0 0 0 0 0 0 0 0 0 0.25 0"/>
<feBlend mode="normal" in2="BackgroundImageFix" result="effect1_dropShadow_3_18"/>
<feBlend mode="normal" in="SourceGraphic" in2="effect1_dropShadow_3_18" result="shape"/>
</filter>
<filter id="filter1_d_3_18" x="4.92236" y="42.75" width="240.134" height="101.269" filterUnits="userSpaceOnUse" color-interpolation-filters="sRGB">
<feFlood flood-opacity="0" result="BackgroundImageFix"/>
<feColorMatrix in="SourceAlpha" type="matrix" values="0 0 0 0 0 0 0 0 0 0 0 0 0 0 0 0 0 0 127 0" result="hardAlpha"/>
<feOffset dy="4"/>
<feGaussianBlur stdDeviation="2"/>
<feColorMatrix type="matrix" values="0 0 0 0 0.683333 0 0 0 0 0.683333 0 0 0 0 0.683333 0 0 0 0.5 0"/>
<feBlend mode="normal" in2="BackgroundImageFix" result="effect1_dropShadow_3_18"/>
<feBlend mode="normal" in="SourceGraphic" in2="effect1_dropShadow_3_18" result="shape"/>
</filter>
<filter id="filter2_d_3_18" x="4.92236" y="42.75" width="240.134" height="101.269" filterUnits="userSpaceOnUse" color-interpolation-filters="sRGB">
<feFlood flood-opacity="0" result="BackgroundImageFix"/>
<feColorMatrix in="SourceAlpha" type="matrix" values="0 0 0 0 0 0 0 0 0 0 0 0 0 0 0 0 0 0 127 0" result="hardAlpha"/>
<feOffset dy="4"/>
<feGaussianBlur stdDeviation="2"/>
<feComposite in2="hardAlpha" operator="out"/>
<feColorMatrix type="matrix" values="0 0 0 0 0 0 0 0 0 0 0 0 0 0 0 0 0 0 0.25 0"/>
<feBlend mode="normal" in2="BackgroundImageFix" result="effect1_dropShadow_3_18"/>
<feBlend mode="normal" in="SourceGraphic" in2="effect1_dropShadow_3_18" result="shape"/>
</filter>
</defs>
</svg>
